<?xml version="1.0" standalone="no"?><!DOCTYPE svg PUBLIC "-//W3C//DTD SVG 1.1//EN" "http://www.w3.org/Graphics/SVG/1.1/DTD/svg11.dtd"><svg t="1621064814262" class="icon" viewBox="0 0 1024 1024" version="1.1" xmlns="http://www.w3.org/2000/svg" p-id="1226" xmlns:xlink="http://www.w3.org/1999/xlink" width="200" height="200"><defs><style type="text/css">@font-face { font-family: Georgia; src: local("Source Serif Pro"); }
@font-face { font-family: Times; src: local("Source Serif Pro"); }
@font-face { font-family: "Time New Roman"; src: local("Source Serif Pro"); }
@font-face { font-family: Arial; }
@font-face { font-family: Helvetica; }
@font-face { font-family: "Helvetica Neue"; }
@font-face { font-family: "Open Sans"; }
@font-face { font-family: "Segoe UI"; }
@font-face { font-family: Tahoma; }
@font-face { font-family: Trebuchet; }
@font-face { font-family: "Trebuchet MS"; }
@font-face { font-family: Ubuntu; }
@font-face { font-family: Verdana; }
@font-face { font-family: Consolas; src: local("Source Code Pro"); }
@font-face { font-family: Courier; src: local("Source Code Pro"); }
@font-face { font-family: "Courier New"; src: local("Source Code Pro"); }
@font-face { font-family: "Lucida Console"; src: local("Source Code Pro"); }
@font-face { font-family: "Ubuntu Mono"; src: local("Source Code Pro"); }
@font-face { font-family: SimSun; src: local("Source Han Sans SC"); }
@font-face { font-family: SimSun-ExtB; src: local("Source Han Sans SC"); }
@font-face { font-family: 宋体; src: local("Source Han Sans SC"); }
@font-face { font-family: NSimSun; src: local("Source Han Sans SC"); }
@font-face { font-family: 新宋体; src: local("Source Han Sans SC"); }
@font-face { font-family: SimHei; src: local("Source Han Sans SC"); }
@font-face { font-family: 黑体; src: local("Source Han Sans SC"); }
@font-face { font-family: "Microsoft YaHei UI"; src: local("Source Han Sans SC"); }
@font-face { font-family: "Microsoft YaHei"; src: local("Source Han Sans SC"); }
@font-face { font-family: 微软雅黑; src: local("Source Han Sans SC"); }
@font-face { font-family: "STHeiti SC"; src: local("Source Han Sans SC"); }
@font-face { font-family: "PingFang SC"; src: local("Source Han Sans SC"); }
@font-face { font-family: 苹方-简; src: local("Source Han Sans SC"); }
@font-face { font-family: MingLiU; src: local("Source Han Sans TC"); }
@font-face { font-family: MingLiU-ExtB; src: local("Source Han Sans TC"); }
@font-face { font-family: PMingLiU; src: local("Source Han Sans TC"); }
@font-face { font-family: PMingLiU-ExtB; src: local("Source Han Sans TC"); }
@font-face { font-family: "Microsoft JhengHei UI"; src: local("Source Han Sans TC"); }
@font-face { font-family: "Microsoft JhengHei"; src: local("Source Han Sans TC"); }
@font-face { font-family: 微軟正黑體; src: local("Source Han Sans TC"); }
@font-face { font-family: "STHeiti TC"; src: local("Source Han Sans TC"); }
@font-face { font-family: "PingFang TC"; src: local("Source Han Sans TC"); }
@font-face { font-family: 蘋方-繁; src: local("Source Han Sans TC"); }
@font-face { font-family: MingLiU_HKSCS; src: local("Source Han Sans HC"); }
@font-face { font-family: MingLiU_HKSCS-ExtB; src: local("Source Han Sans HC"); }
@font-face { font-family: "PingFang HK"; src: local("Source Han Sans HC"); }
@font-face { font-family: 蘋方-港; src: local("Source Han Sans HC"); }
@font-face { font-family: "MS Gothic"; src: local("Source Han Sans"); }
@font-face { font-family: "MS PGothic"; src: local("Source Han Sans"); }
@font-face { font-family: "MS UI Gothic"; src: local("Source Han Sans"); }
@font-face { font-family: "Yu Gothic"; src: local("Source Han Sans"); }
@font-face { font-family: "Yu Gothic UI"; src: local("Source Han Sans"); }
@font-face { font-family: "Malgun Gothic"; src: local("Source Han Sans K"); }
</style></defs><path d="M512 1024C230.4 1024 0 793.6 0 512S230.4 0 512 0s512 230.4 512 512-230.4 512-512 512z m259.2-569.6H480c-12.8 0-25.6 12.8-25.6 25.6v64c0 12.8 12.8 25.6 25.6 25.6h176c12.8 0 25.6 12.8 25.6 25.6v12.8c0 41.6-35.2 76.8-76.8 76.8h-240c-12.8 0-25.6-12.8-25.6-25.6V416c0-41.6 35.2-76.8 76.8-76.8h355.2c12.8 0 25.6-12.8 25.6-25.6v-64c0-12.8-12.8-25.6-25.6-25.6H416c-105.6 0-188.8 86.4-188.8 188.8V768c0 12.8 12.8 25.6 25.6 25.6h374.4c92.8 0 169.6-76.8 169.6-169.6v-144c0-12.8-12.8-25.6-25.6-25.6z" fill="#d81e06" p-id="1227"></path></svg>